<svg width="20" height="20" viewBox="0 0 20 20" fill="none" xmlns="http://www.w3.org/2000/svg">
	<path d="M14.45 13.7333V8.23333C14.4478 7.53782 14.1706 6.87141 13.6788 6.37961C13.187 5.8878 12.5206 5.61053 11.825 5.60833H4.32504V4.9C4.32502 3.8766 4.72984 2.89475 5.45115 2.16876C6.17245 1.44277 7.15167 1.0316 8.17504 1.025H15.0417C16.0694 1.025 17.055 1.43326 17.7817 2.15996C18.5084 2.88667 18.9167 3.87229 18.9167 4.9V9.9C18.9146 10.9191 18.5111 11.8963 17.7936 12.62C17.0761 13.3438 16.1024 13.7557 15.0834 13.7667L14.45 13.7333ZM11.825 4.35833C12.8528 4.35833 13.8384 4.76659 14.5651 5.4933C15.2918 6.22 15.7 7.20562 15.7 8.23333V12.4C16.2563 12.256 16.7499 11.9334 17.1052 11.4818C17.4604 11.0302 17.6577 10.4745 17.6667 9.9V4.9C17.6645 4.20448 17.3872 3.53808 16.8954 3.04627C16.4036 2.55447 15.7372 2.2772 15.0417 2.275H8.17504C7.57165 2.27426 6.98655 2.48208 6.51881 2.86325C6.05107 3.24443 5.72944 3.77555 5.60837 4.36667L11.825 4.35833ZM8.39171 18.975C8.11945 18.9763 7.85101 18.911 7.60986 18.7846C7.36871 18.6582 7.1622 18.4746 7.00837 18.25L6.25837 17.1917C6.23239 17.1517 6.19645 17.1191 6.15408 17.0972C6.11171 17.0753 6.06437 17.0648 6.01671 17.0667H5.00004C4.48767 17.0722 3.9793 16.976 3.50434 16.7837C3.02939 16.5915 2.59728 16.3069 2.23303 15.9465C1.86877 15.5862 1.57961 15.1571 1.38228 14.6843C1.18494 14.2114 1.08334 13.7041 1.08337 13.1917V8.23333C1.08334 7.72094 1.18494 7.21362 1.38228 6.74075C1.57961 6.26788 1.86877 5.83884 2.23303 5.47846C2.59728 5.11808 3.02939 4.83352 3.50434 4.64126C3.9793 4.44899 4.48767 4.35283 5.00004 4.35833H11.8667C12.8944 4.35833 13.88 4.76659 14.6067 5.4933C15.3334 6.22 15.7417 7.20562 15.7417 8.23333V13.1917C15.7417 14.2194 15.3334 15.205 14.6067 15.9317C13.88 16.6584 12.8944 17.0667 11.8667 17.0667H10.7667C10.7192 17.0656 10.6721 17.0764 10.6299 17.0983C10.5877 17.1201 10.5516 17.1522 10.525 17.1917L9.77504 18.25C9.62122 18.4746 9.4147 18.6582 9.17355 18.7846C8.9324 18.911 8.66396 18.9763 8.39171 18.975ZM5.00004 5.60833C4.65213 5.60393 4.3068 5.66851 3.984 5.79835C3.66119 5.9282 3.36732 6.12072 3.11937 6.36481C2.87141 6.60889 2.67428 6.89969 2.53937 7.22041C2.40446 7.54113 2.33445 7.8854 2.33337 8.23333V13.1917C2.33111 13.5413 2.39872 13.8879 2.53225 14.2111C2.66577 14.5342 2.86252 14.8275 3.11093 15.0735C3.35934 15.3196 3.65441 15.5136 3.97881 15.6441C4.30322 15.7745 4.65042 15.8389 5.00004 15.8333H6.01671C6.2654 15.8321 6.51066 15.8914 6.73133 16.0061C6.952 16.1208 7.14146 16.2874 7.28337 16.4917L8.02504 17.5C8.06637 17.559 8.12124 17.6071 8.18504 17.6405C8.24884 17.6738 8.31971 17.6914 8.39171 17.6917C8.4637 17.6914 8.53457 17.6738 8.59837 17.6405C8.66218 17.6071 8.71705 17.559 8.75837 17.5L9.50004 16.4417C9.6474 16.2466 9.83925 16.0897 10.0596 15.9839C10.2799 15.878 10.5224 15.8264 10.7667 15.8333H11.825C12.5212 15.8333 13.1889 15.5568 13.6812 15.0645C14.1735 14.5722 14.45 13.9045 14.45 13.2083V8.23333C14.4478 7.53782 14.1706 6.87141 13.6788 6.37961C13.187 5.8878 12.5206 5.61053 11.825 5.60833H5.00004ZM5.48337 10C5.32845 10 5.177 10.0459 5.04818 10.132C4.91936 10.2181 4.81896 10.3404 4.75967 10.4836C4.70038 10.6267 4.68487 10.7842 4.71509 10.9362C4.74532 11.0881 4.81992 11.2277 4.92947 11.3372C5.03902 11.4468 5.1786 11.5214 5.33055 11.5516C5.48251 11.5818 5.64001 11.5663 5.78314 11.507C5.92628 11.4478 6.04862 11.3474 6.13469 11.2185C6.22077 11.0897 6.26671 10.9383 6.26671 10.7833C6.26454 10.5763 6.18131 10.3783 6.03488 10.2318C5.88844 10.0854 5.69045 10.0022 5.48337 10ZM8.40004 10C8.24663 9.99705 8.09574 10.0392 7.96609 10.1213C7.83644 10.2033 7.73374 10.3216 7.67073 10.4615C7.60773 10.6014 7.5872 10.7568 7.61169 10.9082C7.63618 11.0597 7.70462 11.2006 7.8085 11.3136C7.91238 11.4265 8.04714 11.5064 8.19604 11.5434C8.34495 11.5804 8.50144 11.5729 8.6461 11.5217C8.79076 11.4706 8.91721 11.3781 9.00976 11.2557C9.10231 11.1333 9.15689 10.9865 9.16671 10.8333C9.17231 10.728 9.1568 10.6226 9.12109 10.5233C9.08538 10.4241 9.03019 10.3329 8.95877 10.2553C8.88734 10.1777 8.80113 10.1151 8.70518 10.0713C8.60923 10.0274 8.50548 10.0032 8.40004 10ZM11.3084 10C11.1534 10 11.002 10.0459 10.8732 10.132C10.7444 10.2181 10.644 10.3404 10.5847 10.4836C10.5254 10.6267 10.5099 10.7842 10.5401 10.9362C10.5703 11.0881 10.6449 11.2277 10.7545 11.3372C10.864 11.4468 11.0036 11.5214 11.1556 11.5516C11.3075 11.5818 11.465 11.5663 11.6081 11.507C11.7513 11.4478 11.8736 11.3474 11.9597 11.2185C12.0458 11.0897 12.0917 10.9383 12.0917 10.7833C12.0895 10.5763 12.0063 10.3783 11.8599 10.2318C11.7134 10.0854 11.5155 10.0022 11.3084 10Z" fill="currentColor" />
</svg>
