<svg width="14" height="14" viewBox="0 0 14 14" fill="none" xmlns="http://www.w3.org/2000/svg">
<path d="M7.82251 6.99999L9.91668 4.92332C10.0281 4.81038 10.09 4.65782 10.0889 4.4992C10.0878 4.34057 10.0238 4.18888 9.91085 4.07749C9.79791 3.9661 9.64535 3.90413 9.48672 3.90523C9.3281 3.90632 9.1764 3.97038 9.06501 4.08332L7.00001 6.17749L4.93501 4.12415C4.82572 4.01551 4.67787 3.95453 4.52376 3.95453C4.36966 3.95453 4.22181 4.01551 4.11251 4.12415C4.05784 4.17838 4.01444 4.2429 3.98483 4.31398C3.95521 4.38507 3.93996 4.46131 3.93996 4.53832C3.93996 4.61533 3.95521 4.69157 3.98483 4.76266C4.01444 4.83374 4.05784 4.89826 4.11251 4.95249L6.17751 6.99999L4.08335 9.07665C3.97196 9.18959 3.90999 9.34215 3.91109 9.50078C3.91218 9.6594 3.97624 9.8111 4.08918 9.92249C4.20212 10.0339 4.35468 10.0958 4.51331 10.0947C4.67193 10.0937 4.82362 10.0296 4.93501 9.91665L7.00001 7.82249L9.06501 9.87582C9.17431 9.98447 9.32216 10.0455 9.47626 10.0455C9.63037 10.0455 9.77822 9.98447 9.88751 9.87582C9.94219 9.82159 9.98559 9.75707 10.0152 9.68599C10.0448 9.61491 10.0601 9.53866 10.0601 9.46165C10.0601 9.38465 10.0448 9.3084 10.0152 9.23732C9.98559 9.16623 9.94219 9.10172 9.88751 9.04749L7.82251 6.99999Z" fill="#A1A5B7"/>
</svg>
