<svg width="14" height="14" viewBox="0 0 14 14" fill="none" xmlns="http://www.w3.org/2000/svg">
<path d="M12.5825 11.3225L10.71 9.57249C11.5058 8.51173 11.8737 7.19059 11.7408 5.87121C11.6078 4.55183 10.9838 3.33064 9.9924 2.44995C9.00104 1.56925 7.71482 1.09341 6.38897 1.11685C5.06312 1.14029 3.79453 1.6613 2.83492 2.57649C1.8753 3.49168 1.29479 4.73416 1.20858 6.05742C1.12236 7.38067 1.53674 8.68798 2.36949 9.71995C3.20224 10.7519 4.3925 11.4331 5.7041 11.6284C7.0157 11.8237 8.35279 11.5188 9.45005 10.7742L11.375 12.6C11.5351 12.7462 11.7418 12.831 11.9584 12.8392C12.0781 12.8402 12.1968 12.8157 12.3064 12.7675C12.416 12.7192 12.5141 12.6482 12.5942 12.5592C12.6753 12.4775 12.7394 12.3806 12.7827 12.2741C12.8261 12.1675 12.8478 12.0534 12.8467 11.9384C12.8456 11.8234 12.8217 11.7097 12.7764 11.604C12.731 11.4982 12.6652 11.4026 12.5825 11.3225ZM6.47505 10.1092C5.73716 10.108 5.01617 9.88822 4.40312 9.47755C3.79007 9.06688 3.31246 8.48376 3.03062 7.80182C2.74878 7.11988 2.67534 6.36971 2.81957 5.64606C2.96381 4.92241 3.31926 4.25773 3.84102 3.73596C4.36279 3.2142 5.02747 2.85875 5.75112 2.71452C6.47477 2.57028 7.22493 2.64372 7.90687 2.92556C8.58881 3.20741 9.17194 3.68501 9.58261 4.29806C9.99327 4.91111 10.2131 5.63211 10.2142 6.36999C10.2142 6.86103 10.1175 7.34725 9.92959 7.80091C9.74168 8.25457 9.46625 8.66677 9.11904 9.01398C8.77182 9.3612 8.35962 9.63662 7.90596 9.82453C7.45231 10.0124 6.96608 10.1092 6.47505 10.1092Z" fill="#A1A5B7"/>
</svg>
