<svg width="16" height="16" viewBox="0 0 16 16" fill="none" xmlns="http://www.w3.org/2000/svg">
	<path d="M12 8.66667H8.66671V12C8.66671 12.1768 8.59647 12.3464 8.47145 12.4714C8.34642 12.5964 8.17685 12.6667 8.00004 12.6667C7.82323 12.6667 7.65366 12.5964 7.52864 12.4714C7.40361 12.3464 7.33337 12.1768 7.33337 12V8.66667H4.00004C3.82323 8.66667 3.65366 8.59643 3.52864 8.47141C3.40361 8.34639 3.33337 8.17682 3.33337 8C3.33337 7.82319 3.40361 7.65363 3.52864 7.5286C3.65366 7.40358 3.82323 7.33334 4.00004 7.33334H7.33337V4C7.33337 3.82319 7.40361 3.65362 7.52864 3.5286C7.65366 3.40358 7.82323 3.33334 8.00004 3.33334C8.17685 3.33334 8.34642 3.40358 8.47145 3.5286C8.59647 3.65362 8.66671 3.82319 8.66671 4V7.33334H12C12.1769 7.33334 12.3464 7.40358 12.4714 7.5286C12.5965 7.65363 12.6667 7.82319 12.6667 8C12.6667 8.17682 12.5965 8.34639 12.4714 8.47141C12.3464 8.59643 12.1769 8.66667 12 8.66667Z" fill="currentColor" />
</svg>
